<svg version="1.1" viewBox="0.0 0.0 960.0 540.0" fill="none" stroke="none" stroke-linecap="square" stroke-miterlimit="10" xmlns:xlink="http://www.w3.org/1999/xlink" xmlns="http://www.w3.org/2000/svg"><clipPath id="g9f4d7d99d8_5_297.0"><path d="m0 0l960.0 0l0 540.0l-960.0 0l0 -540.0z" clip-rule="nonzero"/></clipPath><g clip-path="url(#g9f4d7d99d8_5_297.0)"><path fill="#ffffff" d="m0 0l960.0 0l0 540.0l-960.0 0z" fill-rule="evenodd"/><g filter="url(#shadowFilter-g9f4d7d99d8_5_297.1)"><use xlink:href="#g9f4d7d99d8_5_297.1" transform="matrix(1.0 0.0 0.0 1.0 0.0 2.0)"/></g><defs><filter id="shadowFilter-g9f4d7d99d8_5_297.1" filterUnits="userSpaceOnUse"><feGaussianBlur in="SourceAlpha" stdDeviation="2.0" result="blur"/><feComponentTransfer in="blur" color-interpolation-filters="sRGB"><feFuncR type="linear" slope="0" intercept="0.0"/><feFuncG type="linear" slope="0" intercept="0.0"/><feFuncB type="linear" slope="0" intercept="0.0"/><feFuncA type="linear" slope="0.5" intercept="0"/></feComponentTransfer></filter></defs><g id="g9f4d7d99d8_5_297.1"><path fill="#ffffff" d="m265.26248 249.9582l0 0c0 -5.534561 4.4866333 -10.021194 10.021179 -10.021194l409.4379 0c2.657837 0 5.206726 1.0558014 7.0860596 2.935135c1.8793335 1.8793488 2.9351807 4.4282684 2.9351807 7.0860596l0 40.083603c0 5.534546 -4.4866333 10.021179 -10.02124 10.021179l-409.4379 0c-5.534546 0 -10.021179 -4.4866333 -10.021179 -10.021179z" fill-rule="evenodd"/><path stroke="#4a86e8" stroke-width="1.0" stroke-linejoin="round" stroke-linecap="butt" d="m265.26248 249.9582l0 0c0 -5.534561 4.4866333 -10.021194 10.021179 -10.021194l409.4379 0c2.657837 0 5.206726 1.0558014 7.0860596 2.935135c1.8793335 1.8793488 2.9351807 4.4282684 2.9351807 7.0860596l0 40.083603c0 5.534546 -4.4866333 10.021179 -10.02124 10.021179l-409.4379 0c-5.534546 0 -10.021179 -4.4866333 -10.021179 -10.021179z" fill-rule="evenodd"/><path fill="#4a86e8" d="m292.33084 276.94l0 -21.9375l2.984375 0l11.53125 17.21875l0 -17.21875l2.78125 0l0 21.9375l-2.984375 0l-11.515625 -17.25l0 17.25l-2.796875 0zm20.826477 -7.953125q0 -4.40625 2.453125 -6.53125q2.0625 -1.765625 5.0 -1.765625q3.28125 0 5.359375 2.15625q2.078125 2.140625 2.078125 5.921875q0 3.0625 -0.921875 4.828125q-0.90625 1.75 -2.671875 2.734375q-1.765625 0.96875 -3.84375 0.96875q-3.328125 0 -5.390625 -2.140625q-2.0625 -2.140625 -2.0625 -6.171875zm2.765625 0q0 3.0625 1.328125 4.578125q1.34375 1.515625 3.359375 1.515625q2.015625 0 3.34375 -1.515625q1.328125 -1.53125 1.328125 -4.65625q0 -2.953125 -1.34375 -4.46875q-1.328125 -1.53125 -3.328125 -1.53125q-2.015625 0 -3.359375 1.515625q-1.328125 1.515625 -1.328125 4.5625zm18.221405 7.953125l-4.859375 -15.890625l2.78125 0l2.53125 9.171875l0.9375 3.40625q0.0625 -0.25 0.828125 -3.28125l2.53125 -9.296875l2.765625 0l2.375 9.21875l0.796875 3.03125l0.921875 -3.0625l2.71875 -9.1875l2.625 0l-4.96875 15.890625l-2.8125 0l-2.53125 -9.515625l-0.609375 -2.71875l-3.21875 12.234375l-2.8125 0zm33.609375 -2.40625l0.390625 2.375q-1.140625 0.234375 -2.046875 0.234375q-1.453125 0 -2.265625 -0.453125q-0.8125 -0.46875 -1.140625 -1.21875q-0.328125 -0.765625 -0.328125 -3.1875l0 -9.140625l-1.984375 0l0 -2.09375l1.984375 0l0 -3.9375l2.671875 -1.625l0 5.5625l2.71875 0l0 2.09375l-2.71875 0l0 9.296875q0 1.140625 0.140625 1.484375q0.15625 0.328125 0.46875 0.515625q0.328125 0.1875 0.921875 0.1875q0.453125 0 1.1875 -0.09375zm2.6266785 2.40625l0 -21.9375l2.703125 0l0 7.859375q1.875 -2.171875 4.75 -2.171875q1.765625 0 3.0625 0.703125q1.3125 0.6875 1.875 1.921875q0.5625 1.21875 0.5625 3.546875l0 10.078125l-2.6875 0l0 -10.078125q0 -2.015625 -0.890625 -2.9375q-0.875 -0.921875 -2.46875 -0.921875q-1.203125 0 -2.265625 0.625q-1.046875 0.625 -1.5 1.6875q-0.4375 1.0625 -0.4375 2.921875l0 8.703125l-2.703125 0zm27.940155 -5.125l2.78125 0.34375q-0.65625 2.453125 -2.4375 3.796875q-1.78125 1.34375 -4.546875 1.34375q-3.5 0 -5.546875 -2.140625q-2.03125 -2.15625 -2.03125 -6.03125q0 -4.015625 2.0625 -6.21875q2.0625 -2.21875 5.359375 -2.21875q3.1875 0 5.203125 2.171875q2.03125 2.15625 2.03125 6.09375q0 0.25 -0.015625 0.71875l-11.859375 0q0.15625 2.625 1.484375 4.015625q1.328125 1.390625 3.328125 1.390625q1.46875 0 2.515625 -0.765625q1.0625 -0.78125 1.671875 -2.5zm-8.84375 -4.34375l8.875 0q-0.1875 -2.015625 -1.015625 -3.015625q-1.296875 -1.5625 -3.34375 -1.5625q-1.859375 0 -3.125 1.25q-1.265625 1.234375 -1.390625 3.328125zm34.410583 4.34375l2.78125 0.34375q-0.65625 2.453125 -2.4375 3.796875q-1.78125 1.34375 -4.546875 1.34375q-3.5 0 -5.546875 -2.140625q-2.03125 -2.15625 -2.03125 -6.03125q0 -4.015625 2.0625 -6.21875q2.0625 -2.21875 5.359375 -2.21875q3.1875 0 5.203125 2.171875q2.03125 2.15625 2.03125 6.09375q0 0.25 -0.015625 0.71875l-11.859375 0q0.15625 2.625 1.484375 4.015625q1.328125 1.390625 3.328125 1.390625q1.46875 0 2.515625 -0.765625q1.0625 -0.78125 1.671875 -2.5zm-8.84375 -4.34375l8.875 0q-0.1875 -2.015625 -1.015625 -3.015625q-1.296875 -1.5625 -3.34375 -1.5625q-1.859375 0 -3.125 1.25q-1.265625 1.234375 -1.390625 3.328125zm13.205811 9.46875l5.8125 -8.265625l-5.375 -7.625l3.375 0l2.4375 3.71875q0.6875 1.0625 1.109375 1.78125q0.65625 -0.984375 1.203125 -1.75l2.6875 -3.75l3.21875 0l-5.5 7.484375l5.921875 8.40625l-3.3125 0l-3.265625 -4.9375l-0.859375 -1.328125l-4.1875 6.265625l-3.265625 0zm17.125 6.09375l0 -21.984375l2.453125 0l0 2.0625q0.875 -1.21875 1.96875 -1.8125q1.09375 -0.609375 2.65625 -0.609375q2.03125 0 3.578125 1.046875q1.5625 1.046875 2.359375 2.953125q0.796875 1.90625 0.796875 4.1875q0 2.4375 -0.875 4.390625q-0.875 1.953125 -2.546875 3.0q-1.671875 1.03125 -3.515625 1.03125q-1.34375 0 -2.421875 -0.5625q-1.0625 -0.578125 -1.75 -1.4375l0 7.734375l-2.703125 0zm2.4375 -13.953125q0 3.0625 1.25 4.53125q1.25 1.46875 3.015625 1.46875q1.796875 0 3.0625 -1.515625q1.28125 -1.515625 1.28125 -4.703125q0 -3.046875 -1.25 -4.546875q-1.25 -1.515625 -2.984375 -1.515625q-1.71875 0 -3.046875 1.609375q-1.328125 1.609375 -1.328125 4.671875zm25.502655 2.734375l2.78125 0.34375q-0.65625 2.453125 -2.4375 3.796875q-1.78125 1.34375 -4.546875 1.34375q-3.5 0 -5.546875 -2.140625q-2.03125 -2.15625 -2.03125 -6.03125q0 -4.015625 2.0625 -6.21875q2.0625 -2.21875 5.359375 -2.21875q3.1875 0 5.203125 2.171875q2.03125 2.15625 2.03125 6.09375q0 0.25 -0.015625 0.71875l-11.859375 0q0.15625 2.625 1.484375 4.015625q1.328125 1.390625 3.328125 1.390625q1.46875 0 2.515625 -0.765625q1.0625 -0.78125 1.671875 -2.5zm-8.84375 -4.34375l8.875 0q-0.1875 -2.015625 -1.015625 -3.015625q-1.296875 -1.5625 -3.34375 -1.5625q-1.859375 0 -3.125 1.25q-1.265625 1.234375 -1.390625 3.328125zm14.971436 9.46875l0 -15.890625l2.4375 0l0 2.40625q0.921875 -1.6875 1.703125 -2.21875q0.796875 -0.546875 1.734375 -0.546875q1.359375 0 2.765625 0.859375l-0.921875 2.5q-0.984375 -0.578125 -1.984375 -0.578125q-0.875 0 -1.578125 0.53125q-0.703125 0.53125 -1.0 1.46875q-0.453125 1.4375 -0.453125 3.140625l0 8.328125l-2.703125 0zm10.255646 -18.84375l0 -3.09375l2.703125 0l0 3.09375l-2.703125 0zm0 18.84375l0 -15.890625l2.703125 0l0 15.890625l-2.703125 0zm6.7951965 0l0 -15.890625l2.421875 0l0 2.21875q0.734375 -1.15625 1.984375 -1.859375q1.25 -0.71875 2.828125 -0.71875q1.765625 0 2.890625 0.734375q1.140625 0.71875 1.59375 2.046875q1.890625 -2.78125 4.9219055 -2.78125q2.359375 0 3.625 1.3125q1.28125 1.296875 1.28125 4.03125l0 10.90625l-2.6875 0l0 -10.015625q0 -1.609375 -0.265625 -2.3125q-0.25 -0.71875 -0.9375 -1.15625q-0.6875 -0.4375 -1.625 -0.4375q-1.6719055 0 -2.7812805 1.125q-1.109375 1.109375 -1.109375 3.5625l0 9.234375l-2.6875 0l0 -10.328125q0 -1.796875 -0.65625 -2.6875q-0.65625 -0.90625 -2.15625 -0.90625q-1.140625 0 -2.109375 0.609375q-0.96875 0.59375 -1.40625 1.75q-0.421875 1.140625 -0.421875 3.3125l0 8.25l-2.703125 0zm36.42752 -5.125l2.78125 0.34375q-0.65625 2.453125 -2.4375 3.796875q-1.78125 1.34375 -4.546875 1.34375q-3.5 0 -5.546875 -2.140625q-2.03125 -2.15625 -2.03125 -6.03125q0 -4.015625 2.0625 -6.21875q2.0625 -2.21875 5.359375 -2.21875q3.1875 0 5.203125 2.171875q2.03125 2.15625 2.03125 6.09375q0 0.25 -0.015625 0.71875l-11.859375 0q0.15625 2.625 1.484375 4.015625q1.328125 1.390625 3.328125 1.390625q1.46875 0 2.515625 -0.765625q1.0625 -0.78125 1.671875 -2.5zm-8.84375 -4.34375l8.875 0q-0.1875 -2.015625 -1.015625 -3.015625q-1.296875 -1.5625 -3.34375 -1.5625q-1.859375 0 -3.125 1.25q-1.265625 1.234375 -1.390625 3.328125zm15.002686 9.46875l0 -15.890625l2.4375 0l0 2.25q1.75 -2.609375 5.046875 -2.609375q1.4375 0 2.640625 0.515625q1.21875 0.515625 1.8125 1.359375q0.59375 0.828125 0.84375 1.984375q0.140625 0.75 0.140625 2.609375l0 9.78125l-2.6875 0l0 -9.671875q0 -1.640625 -0.328125 -2.453125q-0.3125 -0.828125 -1.109375 -1.3125q-0.796875 -0.484375 -1.875 -0.484375q-1.71875 0 -2.96875 1.09375q-1.25 1.09375 -1.25 4.140625l0 8.6875l-2.703125 0zm22.940186 -2.40625l0.390625 2.375q-1.140625 0.234375 -2.046875 0.234375q-1.453125 0 -2.265625 -0.453125q-0.8125 -0.46875 -1.140625 -1.21875q-0.328125 -0.765625 -0.328125 -3.1875l0 -9.140625l-1.984375 0l0 -2.09375l1.984375 0l0 -3.9375l2.671875 -1.625l0 5.5625l2.71875 0l0 2.09375l-2.71875 0l0 9.296875q0 1.140625 0.140625 1.484375q0.15625 0.328125 0.46875 0.515625q0.328125 0.1875 0.921875 0.1875q0.453125 0 1.1875 -0.09375zm13.628296 2.40625l-2.5 0l0 -21.9375l2.703125 0l0 7.828125q1.703125 -2.140625 4.359375 -2.140625q1.453125 0 2.765625 0.59375q1.3125 0.578125 2.15625 1.65625q0.84375 1.0625 1.328125 2.578125q0.484375 1.515625 0.484375 3.234375q0 4.09375 -2.03125 6.328125q-2.015625 2.21875 -4.84375 2.21875q-2.8125 0 -4.421875 -2.34375l0 1.984375zm-0.03125 -8.0625q0 2.859375 0.78125 4.125q1.28125 2.078125 3.453125 2.078125q1.765625 0 3.046875 -1.53125q1.28125 -1.53125 1.28125 -4.578125q0 -3.109375 -1.234375 -4.59375q-1.234375 -1.484375 -2.984375 -1.484375q-1.765625 0 -3.0625 1.546875q-1.28125 1.53125 -1.28125 4.4375zm25.48706 2.9375l2.78125 0.34375q-0.65625 2.453125 -2.4375 3.796875q-1.78125 1.34375 -4.546875 1.34375q-3.5 0 -5.546875 -2.140625q-2.03125 -2.15625 -2.03125 -6.03125q0 -4.015625 2.0625 -6.21875q2.0625 -2.21875 5.359375 -2.21875q3.1875 0 5.203125 2.171875q2.03125 2.15625 2.03125 6.09375q0 0.25 -0.015625 0.71875l-11.859375 0q0.15625 2.625 1.484375 4.015625q1.328125 1.390625 3.328125 1.390625q1.46875 0 2.515625 -0.765625q1.0625 -0.78125 1.671875 -2.5zm-8.84375 -4.34375l8.875 0q-0.1875 -2.015625 -1.015625 -3.015625q-1.296875 -1.5625 -3.34375 -1.5625q-1.859375 0 -3.125 1.25q-1.265625 1.234375 -1.390625 3.328125zm14.518311 10.78125l2.609375 0.390625q0.171875 1.21875 0.921875 1.765625q1.0 0.75 2.734375 0.75q1.875 0 2.890625 -0.75q1.015625 -0.75 1.375 -2.09375q0.21875 -0.828125 0.203125 -3.453125q-1.765625 2.078125 -4.40625 2.078125q-3.28125 0 -5.078125 -2.359375q-1.796875 -2.375 -1.796875 -5.671875q0 -2.28125 0.828125 -4.203125q0.828125 -1.921875 2.390625 -2.96875q1.5625 -1.046875 3.671875 -1.046875q2.8125 0 4.640625 2.265625l0 -1.90625l2.484375 0l0 13.734375q0 3.71875 -0.765625 5.265625q-0.75 1.546875 -2.390625 2.4375q-1.640625 0.90625 -4.03125 0.90625q-2.84375 0 -4.59375 -1.28125q-1.75 -1.28125 -1.6875 -3.859375zm2.21875 -9.546875q0 3.125 1.234375 4.5625q1.25 1.4375 3.125 1.4375q1.859375 0 3.109375 -1.421875q1.265625 -1.4375 1.265625 -4.484375q0 -2.921875 -1.296875 -4.40625q-1.296875 -1.484375 -3.125 -1.484375q-1.796875 0 -3.0625 1.46875q-1.25 1.453125 -1.25 4.328125zm15.330811 -10.609375l0 -3.09375l2.703125 0l0 3.09375l-2.703125 0zm0 18.84375l0 -15.890625l2.703125 0l0 15.890625l-2.703125 0zm6.795227 0l0 -15.890625l2.4375 0l0 2.25q1.75 -2.609375 5.046875 -2.609375q1.4375 0 2.640625 0.515625q1.21875 0.515625 1.8125 1.359375q0.59375 0.828125 0.84375 1.984375q0.140625 0.75 0.140625 2.609375l0 9.78125l-2.6875 0l0 -9.671875q0 -1.640625 -0.328125 -2.453125q-0.3125 -0.828125 -1.109375 -1.3125q-0.796875 -0.484375 -1.875 -0.484375q-1.71875 0 -2.96875 1.09375q-1.25 1.09375 -1.25 4.140625l0 8.6875l-2.703125 0zm15.971436 -4.75l2.671875 -0.421875q0.21875 1.609375 1.234375 2.46875q1.03125 0.84375 2.875 0.84375q1.859375 0 2.75 -0.75q0.90625 -0.765625 0.90625 -1.78125q0 -0.90625 -0.796875 -1.4375q-0.546875 -0.359375 -2.75 -0.90625q-2.96875 -0.75 -4.109375 -1.296875q-1.140625 -0.546875 -1.734375 -1.515625q-0.59375 -0.96875 -0.59375 -2.125q0 -1.0625 0.484375 -1.96875q0.484375 -0.90625 1.328125 -1.515625q0.625 -0.453125 1.703125 -0.765625q1.09375 -0.328125 2.34375 -0.328125q1.859375 0 3.265625 0.546875q1.421875 0.53125 2.09375 1.453125q0.6875 0.90625 0.9375 2.453125l-2.640625 0.359375q-0.171875 -1.21875 -1.03125 -1.90625q-0.859375 -0.703125 -2.4375 -0.703125q-1.859375 0 -2.65625 0.625q-0.78125 0.609375 -0.78125 1.4375q0 0.515625 0.328125 0.9375q0.328125 0.4375 1.03125 0.71875q0.40625 0.15625 2.375 0.6875q2.859375 0.765625 3.984375 1.25q1.140625 0.484375 1.78125 1.421875q0.640625 0.921875 0.640625 2.296875q0 1.34375 -0.78125 2.546875q-0.78125 1.1875 -2.265625 1.84375q-1.484375 0.640625 -3.359375 0.640625q-3.09375 0 -4.71875 -1.28125q-1.625 -1.296875 -2.078125 -3.828125zm17.171875 4.75l0 -3.0625l3.078125 0l0 3.0625l-3.078125 0z" fill-rule="nonzero"/></g></g></svg>